<mxfile host="65bd71144e">
    <diagram id="QFoU5hE6jV3CWI5dNyLY" name="第 1 页">
        <mxGraphModel dx="685" dy="637" grid="0" gridSize="10" guides="1" tooltips="1" connect="1" arrows="1" fold="1" page="1" pageScale="1" pageWidth="1654" pageHeight="1169" math="0" shadow="0">
            <root>
                <mxCell id="0"/>
                <mxCell id="1" parent="0"/>
                <mxCell id="19" value="" style="group" parent="1" vertex="1" connectable="0">
                    <mxGeometry x="1398" y="116" width="169" height="179" as="geometry"/>
                </mxCell>
                <mxCell id="16" value="" style="rounded=0;whiteSpace=wrap;html=1;fontFamily=Roboto Mono;fontSize=16;fillColor=#f5f5f5;strokeColor=#666666;fontColor=#333333;" parent="19" vertex="1">
                    <mxGeometry width="169" height="179" as="geometry"/>
                </mxCell>
                <mxCell id="3" value="图例" style="text;html=1;align=center;verticalAlign=middle;resizable=0;points=[];autosize=1;strokeColor=none;fontSize=16;fontFamily=Roboto Mono;" parent="19" vertex="1">
                    <mxGeometry x="63.5" y="7" width="42" height="23" as="geometry"/>
                </mxCell>
                <mxCell id="4" value="必会知识" style="rounded=1;whiteSpace=wrap;html=1;fillColor=#d5e8d4;strokeColor=#82b366;fontSize=16;fontFamily=Roboto Mono;" parent="19" vertex="1">
                    <mxGeometry x="18" y="42" width="133" height="31" as="geometry"/>
                </mxCell>
                <mxCell id="5" value="建议学习的知识" style="rounded=1;whiteSpace=wrap;html=1;fillColor=#dae8fc;strokeColor=#6c8ebf;fontSize=16;fontFamily=Roboto Mono;" parent="19" vertex="1">
                    <mxGeometry x="18" y="85" width="133" height="31" as="geometry"/>
                </mxCell>
                <mxCell id="6" value="选择学习的知识" style="rounded=1;whiteSpace=wrap;html=1;fillColor=#f8cecc;strokeColor=#b85450;fontSize=16;fontFamily=Roboto Mono;" parent="19" vertex="1">
                    <mxGeometry x="18" y="128" width="133" height="31" as="geometry"/>
                </mxCell>
                <mxCell id="153" value="01. 五层网络模型" style="rounded=1;whiteSpace=wrap;html=1;fillColor=#d5e8d4;fontSize=16;fontFamily=Roboto Mono;strokeColor=#82b366;align=left;spacingLeft=9;" parent="1" vertex="1">
                    <mxGeometry x="342" y="116" width="220" height="31" as="geometry"/>
                </mxCell>
                <mxCell id="154" value="02. 常见请求方法" style="rounded=1;whiteSpace=wrap;html=1;fillColor=#d5e8d4;fontSize=16;fontFamily=Roboto Mono;strokeColor=#82b366;align=left;spacingLeft=9;" parent="1" vertex="1">
                    <mxGeometry x="342" y="175" width="220" height="31" as="geometry"/>
                </mxCell>
                <mxCell id="155" value="03. cookie" style="rounded=1;whiteSpace=wrap;html=1;fillColor=#d5e8d4;fontSize=16;fontFamily=Roboto Mono;strokeColor=#82b366;align=left;spacingLeft=9;" parent="1" vertex="1">
                    <mxGeometry x="342" y="234" width="220" height="31" as="geometry"/>
                </mxCell>
                <mxCell id="157" style="edgeStyle=orthogonalEdgeStyle;rounded=0;orthogonalLoop=1;jettySize=auto;html=1;entryX=0.5;entryY=1;entryDx=0;entryDy=0;" parent="1" source="156" target="155" edge="1">
                    <mxGeometry relative="1" as="geometry"/>
                </mxCell>
                <mxCell id="156" value="04. cookie和storage" style="rounded=1;whiteSpace=wrap;html=1;fillColor=#d5e8d4;fontSize=16;fontFamily=Roboto Mono;strokeColor=#82b366;align=left;spacingLeft=9;" parent="1" vertex="1">
                    <mxGeometry x="342" y="293" width="220" height="31" as="geometry"/>
                </mxCell>
                <mxCell id="158" value="05. 加密" style="rounded=1;whiteSpace=wrap;html=1;fillColor=#d5e8d4;fontSize=16;fontFamily=Roboto Mono;strokeColor=#82b366;align=left;spacingLeft=9;" parent="1" vertex="1">
                    <mxGeometry x="342" y="352" width="220" height="31" as="geometry"/>
                </mxCell>
                <mxCell id="159" value="箭头表示知识间的依赖关系" style="text;html=1;align=center;verticalAlign=middle;resizable=0;points=[];autosize=1;strokeColor=none;fontFamily=Roboto Mono;fontSize=16;" parent="1" vertex="1">
                    <mxGeometry x="890" y="45" width="202" height="23" as="geometry"/>
                </mxCell>
                <mxCell id="162" style="edgeStyle=orthogonalEdgeStyle;rounded=0;orthogonalLoop=1;jettySize=auto;html=1;entryX=0;entryY=0.5;entryDx=0;entryDy=0;" parent="1" source="161" target="156" edge="1">
                    <mxGeometry relative="1" as="geometry">
                        <Array as="points">
                            <mxPoint x="322" y="427"/>
                            <mxPoint x="322" y="309"/>
                        </Array>
                    </mxGeometry>
                </mxCell>
                <mxCell id="163" style="edgeStyle=orthogonalEdgeStyle;rounded=0;orthogonalLoop=1;jettySize=auto;html=1;entryX=0;entryY=0.5;entryDx=0;entryDy=0;" parent="1" source="161" target="158" edge="1">
                    <mxGeometry relative="1" as="geometry">
                        <Array as="points">
                            <mxPoint x="322" y="427"/>
                            <mxPoint x="322" y="368"/>
                        </Array>
                    </mxGeometry>
                </mxCell>
                <mxCell id="161" value="06. JWT" style="rounded=1;whiteSpace=wrap;html=1;fillColor=#d5e8d4;fontSize=16;fontFamily=Roboto Mono;strokeColor=#82b366;align=left;spacingLeft=9;" parent="1" vertex="1">
                    <mxGeometry x="342" y="411" width="220" height="31" as="geometry"/>
                </mxCell>
                <mxCell id="164" value="07. 同源策略" style="rounded=1;whiteSpace=wrap;html=1;fillColor=#d5e8d4;fontSize=16;fontFamily=Roboto Mono;strokeColor=#82b366;align=left;spacingLeft=9;" parent="1" vertex="1">
                    <mxGeometry x="590" y="116" width="170" height="31" as="geometry"/>
                </mxCell>
                <mxCell id="166" style="edgeStyle=orthogonalEdgeStyle;rounded=0;orthogonalLoop=1;jettySize=auto;html=1;" parent="1" source="165" target="164" edge="1">
                    <mxGeometry relative="1" as="geometry"/>
                </mxCell>
                <mxCell id="165" value="08. 跨域-代理" style="rounded=1;whiteSpace=wrap;html=1;fillColor=#d5e8d4;fontSize=16;fontFamily=Roboto Mono;strokeColor=#82b366;align=left;spacingLeft=9;" parent="1" vertex="1">
                    <mxGeometry x="590" y="175" width="170" height="31" as="geometry"/>
                </mxCell>
                <mxCell id="168" style="edgeStyle=orthogonalEdgeStyle;rounded=0;orthogonalLoop=1;jettySize=auto;html=1;entryX=1;entryY=0.5;entryDx=0;entryDy=0;" parent="1" source="167" target="164" edge="1">
                    <mxGeometry relative="1" as="geometry">
                        <Array as="points">
                            <mxPoint x="790" y="250"/>
                            <mxPoint x="790" y="132"/>
                        </Array>
                    </mxGeometry>
                </mxCell>
                <mxCell id="171" style="edgeStyle=orthogonalEdgeStyle;rounded=0;orthogonalLoop=1;jettySize=auto;html=1;entryX=1;entryY=0.5;entryDx=0;entryDy=0;" parent="1" source="167" target="155" edge="1">
                    <mxGeometry relative="1" as="geometry"/>
                </mxCell>
                <mxCell id="167" value="09. 跨域-CORS" style="rounded=1;whiteSpace=wrap;html=1;fillColor=#d5e8d4;fontSize=16;fontFamily=Roboto Mono;strokeColor=#82b366;align=left;spacingLeft=9;" parent="1" vertex="1">
                    <mxGeometry x="590" y="234" width="170" height="31" as="geometry"/>
                </mxCell>
                <mxCell id="170" style="edgeStyle=orthogonalEdgeStyle;rounded=0;orthogonalLoop=1;jettySize=auto;html=1;entryX=1;entryY=0.5;entryDx=0;entryDy=0;" parent="1" source="169" target="164" edge="1">
                    <mxGeometry relative="1" as="geometry">
                        <Array as="points">
                            <mxPoint x="790" y="309"/>
                            <mxPoint x="790" y="132"/>
                        </Array>
                    </mxGeometry>
                </mxCell>
                <mxCell id="169" value="10. 跨域-JSONP" style="rounded=1;whiteSpace=wrap;html=1;fillColor=#d5e8d4;fontSize=16;fontFamily=Roboto Mono;strokeColor=#82b366;align=left;spacingLeft=9;" parent="1" vertex="1">
                    <mxGeometry x="590" y="293" width="170" height="31" as="geometry"/>
                </mxCell>
                <mxCell id="172" value="11. 文件上传" style="rounded=1;whiteSpace=wrap;html=1;fillColor=#d5e8d4;fontSize=16;fontFamily=Roboto Mono;strokeColor=#82b366;align=left;spacingLeft=9;" parent="1" vertex="1">
                    <mxGeometry x="590" y="352" width="170" height="31" as="geometry"/>
                </mxCell>
                <mxCell id="173" value="13. 文件下载" style="rounded=1;whiteSpace=wrap;html=1;fillColor=#dae8fc;fontSize=16;fontFamily=Roboto Mono;strokeColor=#6c8ebf;align=left;spacingLeft=9;" parent="1" vertex="1">
                    <mxGeometry x="871" y="116" width="170" height="31" as="geometry"/>
                </mxCell>
                <mxCell id="174" value="14. session" style="rounded=1;whiteSpace=wrap;html=1;fillColor=#dae8fc;fontSize=16;fontFamily=Roboto Mono;strokeColor=#6c8ebf;align=left;spacingLeft=9;" parent="1" vertex="1">
                    <mxGeometry x="871" y="175" width="170" height="31" as="geometry"/>
                </mxCell>
                <mxCell id="175" value="15. HTTP缓存协议" style="rounded=1;whiteSpace=wrap;html=1;fillColor=#dae8fc;fontSize=16;fontFamily=Roboto Mono;strokeColor=#6c8ebf;align=left;spacingLeft=9;" parent="1" vertex="1">
                    <mxGeometry x="871" y="234" width="170" height="31" as="geometry"/>
                </mxCell>
                <mxCell id="176" value="16. TCP协议" style="rounded=1;whiteSpace=wrap;html=1;fillColor=#dae8fc;fontSize=16;fontFamily=Roboto Mono;strokeColor=#6c8ebf;align=left;spacingLeft=9;" parent="1" vertex="1">
                    <mxGeometry x="871" y="293" width="170" height="31" as="geometry"/>
                </mxCell>
                <mxCell id="177" value="17. CSRF攻击" style="rounded=1;whiteSpace=wrap;html=1;fillColor=#dae8fc;fontSize=16;fontFamily=Roboto Mono;strokeColor=#6c8ebf;align=left;spacingLeft=9;" parent="1" vertex="1">
                    <mxGeometry x="871" y="352" width="170" height="31" as="geometry"/>
                </mxCell>
                <mxCell id="191" style="edgeStyle=orthogonalEdgeStyle;rounded=0;orthogonalLoop=1;jettySize=auto;html=1;entryX=0.5;entryY=1;entryDx=0;entryDy=0;" edge="1" parent="1" source="178" target="177">
                    <mxGeometry relative="1" as="geometry"/>
                </mxCell>
                <mxCell id="178" value="18. XSS攻击" style="rounded=1;whiteSpace=wrap;html=1;fillColor=#dae8fc;fontSize=16;fontFamily=Roboto Mono;strokeColor=#6c8ebf;align=left;spacingLeft=9;" parent="1" vertex="1">
                    <mxGeometry x="871" y="411" width="170" height="31" as="geometry"/>
                </mxCell>
                <mxCell id="179" value="19. 网络性能优化" style="rounded=1;whiteSpace=wrap;html=1;fillColor=#dae8fc;fontSize=16;fontFamily=Roboto Mono;strokeColor=#6c8ebf;align=left;spacingLeft=9;" parent="1" vertex="1">
                    <mxGeometry x="871" y="470" width="170" height="31" as="geometry"/>
                </mxCell>
                <mxCell id="182" value="12. 输入url地址后" style="rounded=1;whiteSpace=wrap;html=1;fillColor=#d5e8d4;fontSize=16;fontFamily=Roboto Mono;strokeColor=#82b366;align=left;spacingLeft=9;" parent="1" vertex="1">
                    <mxGeometry x="590" y="411" width="170" height="31" as="geometry"/>
                </mxCell>
                <mxCell id="183" value="20. 断点续传" style="rounded=1;whiteSpace=wrap;html=1;fillColor=#f8cecc;fontSize=16;fontFamily=Roboto Mono;strokeColor=#b85450;align=left;spacingLeft=9;" parent="1" vertex="1">
                    <mxGeometry x="1141" y="116" width="200" height="31" as="geometry"/>
                </mxCell>
                <mxCell id="184" value="21. 域名和DNS" style="rounded=1;whiteSpace=wrap;html=1;fillColor=#f8cecc;fontSize=16;fontFamily=Roboto Mono;strokeColor=#b85450;align=left;spacingLeft=9;" parent="1" vertex="1">
                    <mxGeometry x="1141" y="175" width="200" height="31" as="geometry"/>
                </mxCell>
                <mxCell id="185" value="22. SSL、TLS、HTTPS" style="rounded=1;whiteSpace=wrap;html=1;fillColor=#f8cecc;fontSize=16;fontFamily=Roboto Mono;strokeColor=#b85450;align=left;spacingLeft=9;" parent="1" vertex="1">
                    <mxGeometry x="1141" y="234" width="200" height="31" as="geometry"/>
                </mxCell>
                <mxCell id="186" value="23. HTTP各版本差异" style="rounded=1;whiteSpace=wrap;html=1;fillColor=#f8cecc;fontSize=16;fontFamily=Roboto Mono;strokeColor=#b85450;align=left;spacingLeft=9;" parent="1" vertex="1">
                    <mxGeometry x="1141" y="293" width="200" height="31" as="geometry"/>
                </mxCell>
                <mxCell id="188" style="edgeStyle=orthogonalEdgeStyle;rounded=0;orthogonalLoop=1;jettySize=auto;html=1;entryX=0.5;entryY=1;entryDx=0;entryDy=0;" parent="1" source="187" target="186" edge="1">
                    <mxGeometry relative="1" as="geometry"/>
                </mxCell>
                <mxCell id="187" value="24. WebSocket" style="rounded=1;whiteSpace=wrap;html=1;fillColor=#f8cecc;fontSize=16;fontFamily=Roboto Mono;strokeColor=#b85450;align=left;spacingLeft=9;" parent="1" vertex="1">
                    <mxGeometry x="1141" y="352" width="200" height="31" as="geometry"/>
                </mxCell>
                <mxCell id="190" style="edgeStyle=orthogonalEdgeStyle;rounded=0;orthogonalLoop=1;jettySize=auto;html=1;" parent="1" source="189" target="187" edge="1">
                    <mxGeometry relative="1" as="geometry"/>
                </mxCell>
                <mxCell id="189" value="25. WebSocket实战" style="rounded=1;whiteSpace=wrap;html=1;fillColor=#f8cecc;fontSize=16;fontFamily=Roboto Mono;strokeColor=#b85450;align=left;spacingLeft=9;" parent="1" vertex="1">
                    <mxGeometry x="1141" y="411" width="200" height="31" as="geometry"/>
                </mxCell>
            </root>
        </mxGraphModel>
    </diagram>
</mxfile>